#N canvas 335 22 899 642 10;
#X declare -lib mrpeach;
#X obj 185 131 dac~;
#X obj 232 95 env~ 128;
#X floatatom 232 121 5 0 0 0 - - -;
#X obj 205 -93 bng 15 250 50 0 empty empty empty 17 7 0 10 -262144
-1 -1;
#X text 191 -109 RESET;
#X obj 185 60 audioSynth;
#N canvas 0 22 450 300 (subpatch) 0;
#X array frequency_spectrum 400 float 0;
#X coords 0 0 399 -500 500 300 1;
#X restore 346 54 graph;
#X obj 205 -56 initPD;
#N canvas 236 121 1044 569 iPadInterface 1;
#X obj 653 271 s fmCarrierHz;
#X obj 2 314 s fmModulatorHz;
#X obj 58 278 s fmModulatorAmplitude;
#X obj 408 270 s volume;
#X obj 453 59 dumpOSC 8000;
#X obj 453 107 routeOSC /1;
#X obj 765 272 s filterCutoffHz;
#X obj 924 268 s oscWaveshape;
#X obj 536 267 s onoff;
#X obj 411 145 routeOSC /volume;
#X obj 536 146 routeOSC /onoff;
#X obj 653 146 routeOSC /freq;
#X obj 3 188 unpack f f;
#X obj 762 147 routeOSC /filterCutoff;
#X obj 3 149 routeOSC /fmModulation;
#X obj 162 148 routeOSC /fmModulatorHz;
#X obj 203 200 routeOSC /fmModulatorAmplitude;
#X obj 922 147 routeOSC /waveshape;
#X connect 4 0 5 0;
#X connect 5 0 9 0;
#X connect 5 0 10 0;
#X connect 5 0 11 0;
#X connect 5 0 13 0;
#X connect 5 0 14 0;
#X connect 5 0 15 0;
#X connect 5 0 16 0;
#X connect 5 0 17 0;
#X connect 9 0 3 0;
#X connect 10 0 8 0;
#X connect 11 0 0 0;
#X connect 12 0 1 0;
#X connect 12 1 2 0;
#X connect 13 0 6 0;
#X connect 14 0 12 0;
#X connect 15 0 1 0;
#X connect 16 0 2 0;
#X connect 17 0 7 0;
#X restore 347 -53 pd iPadInterface;
#X text 646 -193 comment;
#X text 12 -190 comment;
#X text 345 -101 comment;
#X connect 1 0 2 0;
#X connect 3 0 7 0;
#X connect 5 0 0 0;
#X connect 5 0 0 1;
#X connect 5 0 1 0;
